<svg width="32" height="32" viewBox="0 0 32 32" fill="none" xmlns="http://www.w3.org/2000/svg">
<path opacity="0.2" d="M13.975 7C13.3875 6.08063 12.5781 5.32394 11.6212 4.79966C10.6644 4.27537 9.59104 4.00037 8.5 4C8.01488 4.83972 7.72379 5.77735 7.64809 6.74417C7.57239 7.711 7.71399 8.68251 8.0625 9.5875C7.37901 10.5951 7.00929 11.7825 7 13V14C7 15.5913 7.63214 17.1174 8.75736 18.2426C9.88258 19.3679 11.4087 20 13 20H19C20.5913 20 22.1174 19.3679 23.2426 18.2426C24.3679 17.1174 25 15.5913 25 14V13C24.9907 11.7825 24.621 10.5951 23.9375 9.5875C24.286 8.68251 24.4276 7.711 24.3519 6.74417C24.2762 5.77735 23.9851 4.83972 23.5 4C22.409 4.00037 21.3356 4.27537 20.3787 4.79966C19.4219 5.32394 18.6125 6.08063 18.025 7H13.975Z" fill="#BDFF00"/>
<path d="M10.5 29C10.8944 29.0017 11.2853 28.9252 11.65 28.775C12.0147 28.6248 12.3461 28.4039 12.625 28.125C12.9039 27.8461 13.1248 27.5147 13.275 27.15C13.4252 26.7853 13.5017 26.3944 13.5 26V20" stroke="#BDFF00" stroke-width="2" stroke-linecap="round" stroke-linejoin="round"/>
<path d="M21.5 29C21.1056 29.0017 20.7147 28.9252 20.35 28.775C19.9853 28.6248 19.6539 28.4039 19.375 28.125C19.0961 27.8461 18.8752 27.5147 18.725 27.15C18.5748 26.7853 18.4984 26.3944 18.5 26V20" stroke="#BDFF00" stroke-width="2" stroke-linecap="round" stroke-linejoin="round"/>
<path d="M19 20H21C21.3944 19.9984 21.7853 20.0748 22.15 20.225C22.5147 20.3752 22.8461 20.5961 23.125 20.875C23.4039 21.1539 23.6248 21.4853 23.775 21.85C23.9252 22.2147 24.0017 22.6056 24 23V24C23.9983 24.3945 24.0748 24.7853 24.225 25.15C24.3752 25.5148 24.5961 25.8461 24.875 26.125C25.1539 26.4039 25.4853 26.6249 25.85 26.775C26.2147 26.9252 26.6056 27.0017 27 27" stroke="#BDFF00" stroke-width="2" stroke-linecap="round" stroke-linejoin="round"/>
<path d="M13 20H11C10.6056 19.9984 10.2147 20.0748 9.85 20.225C9.48527 20.3752 9.1539 20.5961 8.87499 20.875C8.59609 21.1539 8.37517 21.4853 8.22499 21.85C8.07481 22.2147 7.99835 22.6056 8 23V24C8.00165 24.3945 7.92519 24.7853 7.77501 25.15C7.62483 25.5148 7.40391 25.8461 7.12501 26.125C6.8461 26.4039 6.51473 26.6249 6.15 26.775C5.78528 26.9252 5.39443 27.0017 5 27" stroke="#BDFF00" stroke-width="2" stroke-linecap="round" stroke-linejoin="round"/>
<path d="M13.975 7C13.3875 6.08063 12.5781 5.32394 11.6212 4.79966C10.6644 4.27537 9.59104 4.00037 8.5 4C8.01488 4.83972 7.72379 5.77735 7.64809 6.74417C7.57239 7.711 7.71399 8.68251 8.0625 9.5875C7.37901 10.5951 7.00929 11.7825 7 13V14C7 15.5913 7.63214 17.1174 8.75736 18.2426C9.88258 19.3679 11.4087 20 13 20H19C20.5913 20 22.1174 19.3679 23.2426 18.2426C24.3679 17.1174 25 15.5913 25 14V13C24.9907 11.7825 24.621 10.5951 23.9375 9.5875C24.286 8.68251 24.4276 7.711 24.3519 6.74417C24.2762 5.77735 23.9851 4.83972 23.5 4C22.409 4.00037 21.3356 4.27537 20.3787 4.79966C19.4219 5.32394 18.6125 6.08063 18.025 7H13.975Z" stroke="#BDFF00" stroke-width="2" stroke-linecap="round" stroke-linejoin="round"/>
</svg>
