<svg width="64" height="64" viewBox="0 0 64 64" fill="none" xmlns="http://www.w3.org/2000/svg">
<path d="M9.47504 51.975L22.925 14.95C23.0402 14.6332 23.2335 14.3506 23.4871 14.1285C23.7407 13.9064 24.0464 13.752 24.3756 13.6797C24.7048 13.6074 25.047 13.6194 25.3704 13.7148C25.6937 13.8101 25.9877 13.9856 26.225 14.225L49.775 37.775C50.0144 38.0123 50.1899 38.3063 50.2853 38.6297C50.3806 38.953 50.3927 39.2952 50.3203 39.6244C50.248 39.9537 50.0936 40.2593 49.8715 40.5129C49.6494 40.7665 49.3669 40.9599 49.05 41.075L12.025 54.525C11.6688 54.6612 11.2808 54.6913 10.9079 54.6117C10.5349 54.5322 10.193 54.3464 9.92331 54.0767C9.65366 53.8071 9.46784 53.4651 9.3883 53.0922C9.30875 52.7192 9.33887 52.3312 9.47504 51.975V51.975Z" stroke="#00611B" stroke-width="4" stroke-linecap="round" stroke-linejoin="round"/>
<path d="M42 18C42 18 42 12 48 12C54 12 54 6 54 6" stroke="#00611B" stroke-width="4" stroke-linecap="round" stroke-linejoin="round"/>
<path d="M25.6 49.6L14.4 38.4" stroke="#00611B" stroke-width="4" stroke-linecap="round" stroke-linejoin="round"/>
<path d="M36 4V10" stroke="#00611B" stroke-width="4" stroke-linecap="round" stroke-linejoin="round"/>
<path d="M54 28L58 32" stroke="#00611B" stroke-width="4" stroke-linecap="round" stroke-linejoin="round"/>
<path d="M54 20L60 18" stroke="#00611B" stroke-width="4" stroke-linecap="round" stroke-linejoin="round"/>
<path d="M19.2 25.2L38.7999 44.8" stroke="#00611B" stroke-width="4" stroke-linecap="round" stroke-linejoin="round"/>
</svg>
