<svg width="32" height="32" viewBox="0 0 32 32" fill="none" xmlns="http://www.w3.org/2000/svg">
<path opacity="0.2" d="M15.3976 5C9.10927 5 4 9.13333 4 14.2C4 17.4 6.09611 20.2 9.10927 21.9333L8.32323 26.3333L13.1705 23.1333C13.8255 23.2667 14.6116 23.2667 15.2666 23.2667C21.5549 23.2667 26.6642 19.1333 26.6642 14.0667C26.7952 9.13333 21.6859 5 15.3976 5Z" fill="#006328"/>
<path d="M15.3976 5C9.10927 5 4 9.13333 4 14.2C4 17.4 6.09611 20.2 9.10927 21.9333C9.10927 21.9333 7.97971 26 8.32323 26.3333C8.66675 26.6667 13.1705 23.1333 13.1705 23.1333C13.8255 23.2667 14.6116 23.2667 15.2666 23.2667C21.5549 23.2667 26.6642 19.1333 26.6642 14.0667C26.7952 9.13333 21.6859 5 15.3976 5Z" stroke="#006327" stroke-width="2"/>
</svg>
